<?xml version="1.0" standalone="no"?>
<!DOCTYPE svg PUBLIC "-//W3C//DTD SVG 20010904//EN"
 "http://www.w3.org/TR/2001/REC-SVG-20010904/DTD/svg10.dtd">
<svg version="1.0" xmlns="http://www.w3.org/2000/svg"
 width="2100.000000pt" height="2100.000000pt" viewBox="0 0 2100.000000 2100.000000"
 preserveAspectRatio="xMidYMid meet">
<metadata>
Created by potrace 1.12, written by Peter Selinger 2001-2015
</metadata>
<g transform="translate(0.000000,2100.000000) scale(0.100000,-0.100000)"
fill="#000000" stroke="none">
<path d="M7706 17375 c-135 -66 -265 -268 -370 -575 -129 -382 -222 -932 -256
-1520 -12 -206 -12 -905 0 -1100 31 -496 101 -980 190 -1300 103 -376 211
-605 346 -736 69 -66 122 -88 206 -82 83 5 139 40 218 138 77 94 161 263 216
431 20 63 40 123 44 134 8 20 20 64 46 165 88 353 140 711 175 1210 22 313 13
1084 -17 1410 -3 39 -24 232 -29 270 -21 159 -33 236 -69 440 -19 108 -64 291
-110 448 -106 357 -254 602 -404 669 -67 29 -124 29 -186 -2z"/>
<path d="M13133 17374 c-137 -68 -263 -267 -368 -580 -20 -60 -43 -134 -51
-164 -59 -222 -91 -369 -114 -520 -5 -36 -15 -92 -20 -125 -21 -122 -58 -493
-70 -705 -12 -209 -12 -910 0 -1095 19 -300 48 -572 84 -790 8 -49 20 -119 26
-155 20 -121 69 -324 124 -515 48 -167 162 -421 213 -473 7 -7 13 -18 13 -23
0 -18 123 -131 163 -150 54 -24 146 -25 195 -2 49 23 140 114 189 188 34 51
133 246 133 262 0 3 6 19 14 36 22 50 76 215 91 282 2 6 10 37 19 70 197 755
250 1929 130 2920 -8 72 -19 150 -24 175 -5 25 -12 65 -15 90 -10 69 -64 337
-84 415 -132 501 -274 769 -455 860 -66 33 -125 33 -193 -1z"/>
<path d="M3598 9526 c-73 -27 -132 -59 -225 -123 -35 -24 -65 -43 -68 -43 -3
0 -5 17 -6 38 -1 36 -1 36 -9 9 -5 -16 -6 -35 -3 -44 4 -9 -28 -48 -93 -112
-112 -110 -159 -166 -222 -260 -61 -94 -99 -176 -113 -248 -11 -54 -11 -66 5
-101 10 -22 29 -45 42 -51 75 -34 215 8 366 110 66 45 76 47 82 17 2 -13 12
-66 21 -118 10 -52 21 -111 26 -130 5 -19 18 -75 30 -125 35 -155 147 -522
179 -590 6 -11 21 -51 36 -90 99 -268 306 -674 479 -940 137 -212 191 -288
289 -416 86 -111 94 -121 146 -183 19 -23 55 -66 80 -96 100 -120 405 -434
541 -555 171 -154 287 -252 369 -315 25 -19 51 -40 58 -47 18 -17 218 -161
365 -262 365 -251 891 -534 1332 -716 17 -7 44 -18 60 -25 182 -75 660 -240
695 -240 10 0 21 -4 24 -9 3 -5 23 -12 43 -16 21 -3 58 -13 83 -22 56 -19 292
-80 385 -100 39 -8 99 -21 135 -29 539 -117 1050 -172 1670 -181 708 -9 1282
45 1920 182 204 44 313 70 415 99 50 14 114 33 143 41 133 37 176 50 302 92
145 49 416 147 465 169 17 7 71 29 120 50 50 20 95 40 100 44 6 4 21 11 35 15
46 14 413 192 561 273 93 50 173 96 184 104 6 5 82 51 170 103 342 205 793
547 1095 830 328 308 611 630 842 960 43 60 81 115 85 120 34 44 169 265 248
405 68 119 172 331 239 485 31 72 61 139 66 150 59 134 165 466 219 685 40
164 91 425 91 467 0 18 4 33 10 33 5 0 49 -30 97 -66 103 -77 189 -127 268
-154 61 -21 165 -27 165 -10 0 6 7 10 15 10 22 0 45 53 45 102 0 91 -72 238
-189 388 -53 68 -263 272 -309 300 -32 20 -42 31 -42 53 0 31 -23 45 -44 28
-10 -9 -26 -5 -67 17 -72 37 -156 62 -208 62 -36 0 -49 -6 -77 -34 -28 -28
-34 -41 -34 -78 0 -106 88 -283 216 -435 l44 -51 -27 -64 c-218 -514 -664
-1002 -1301 -1427 -125 -84 -193 -126 -350 -216 -59 -34 -276 -148 -382 -200
-172 -86 -384 -179 -560 -248 -152 -60 -482 -177 -595 -212 -49 -15 -115 -36
-145 -45 -54 -18 -178 -53 -315 -91 -139 -38 -197 -52 -375 -93 -36 -9 -112
-26 -170 -40 -58 -14 -145 -32 -195 -40 -49 -8 -133 -24 -185 -34 -290 -59
-570 -98 -1035 -147 -82 -9 -193 -21 -245 -27 -450 -48 -1648 -56 -2245 -14
-38 3 -115 10 -170 15 -55 5 -156 14 -225 20 -69 6 -136 13 -150 16 -14 3 -81
12 -150 19 -105 12 -190 23 -380 51 -14 2 -54 9 -90 15 -36 6 -105 18 -155 25
-49 8 -110 19 -135 24 -64 13 -196 40 -255 52 -27 5 -102 21 -165 35 -63 14
-142 32 -175 39 -84 19 -267 65 -285 72 -8 3 -19 5 -24 4 -6 -1 -19 2 -30 7
-24 11 -60 22 -171 52 -130 36 -511 159 -625 202 -58 22 -109 41 -115 43 -5 1
-19 6 -30 10 -11 4 -54 21 -95 37 -41 16 -84 34 -95 38 -658 280 -1112 536
-1525 859 -52 41 -97 77 -100 80 -3 3 -32 28 -65 56 -87 72 -290 272 -362 357
-133 156 -157 187 -243 316 -85 126 -190 318 -190 346 0 7 12 24 28 37 66 58
153 161 216 256 73 111 108 196 114 272 4 64 3 70 -25 101 -40 44 -101 49
-195 16z"/>
</g>
</svg>
